<svg xmlns="http://www.w3.org/2000/svg" viewBox="0 0 32 32"><style>#a{fill:black;@media (prefers-color-scheme:dark){fill:white}}</style><path fill="#65D1FF" d="M5.53 3a.5.5 0 1 1 .02.98c-.01 0-2.52 0-3.34 1.65-.82 1.66.81 4.13.82 4.14l2.26 3.61a.5.5 0 1 1-.84.53l-2.26-3.61c-.1-.17-1.91-3-.86-5.11 1.09-2.19 4.2-2.19 4.2-2.19"/><path fill="#FE60B7" d="M30.42 9.59a.5.5 0 0 1-.83-.53s1.23-1.93.28-3.5c-.94-1.52-2.9-1.54-4.3-1.55h-.16c-4.19-.04-11.22 0-11.25 0a.5.5 0 1 1 0-.98h11.42c1.62.01 3.91.03 5.13 2.02 1.28 2.09-.28 4.53-.29 4.54"/><path fill="#A072FD" d="M11.08 24.69a.5.5 0 1 1 .84-.52s2.33 3.75 2.43 3.89q.61.86 1.51 1.4.7.41 1.51.36c1.84-.18 3.08-2.87 3.08-2.88l5.24-10.51a.5.5 0 1 1 .88.44l-5.23 10.5c-.1.19-1.53 3.2-3.88 3.43a3.5 3.5 0 0 1-2.08-.48 6 6 0 0 1-1.84-1.69c-.14-.2-2.45-3.93-2.46-3.94"/><path id="a" d="M16.87 26.63a1.3 1.3 0 0 1-.9-.59 3 3 0 0 1-.5-1.64q0-1.24-.3-2.45-.46-1.56-1.54-1.56-.78.05-1.43.5l-1.44.9a1.2 1.2 0 1 1-1.27-2.04l1.63-1.02a1.47 1.47 0 0 0-1.5-2.5l-.01-.02-4.02 2.51a1.2 1.2 0 1 1-1.28-2.04l4.25-2.65c.27-.2 1.12-1.07.54-2.06-.53-.9-1.4-1.41-2.33-1.96l-.03-.02-.05-.03-.39-.24a4 4 0 0 1-1.36-1.27 1.5 1.5 0 0 1-.06-1.3 1.5 1.5 0 0 1 .96-.72 4 4 0 0 1 1.43-.14c.54.02 4.8.04 9.09.05l-2.79 7.62q-.2.95.05 1.37.29.48 1.24.7l8.05.79-1.3 2.64v.02l-.96 1.94-1.78 3.6c-.57 1.12-1.13 1.62-1.84 1.62zm-12.09-2.52a1.2 1.2 0 0 1 .38-1.66l.68-.42a1.2 1.2 0 1 1 1.28 2.04l-.68.42a1.2 1.2 0 0 1-1.66-.38m18.6-9.55h-.03c-.52-.04-3.2-.28-5.16-.5l-.26-.02h-.1c-.8-.1-1.2-.13-1.38-.43-.22-.34.1-1.2.26-1.66v-.03l.01-.02.04-.12.24-.61.04-.1.01-.03c.39-1 .66-1.72 1.65-3.96a1.2 1.2 0 0 1 1.04-.74c2.06 0 3.67 0 4.66-.02h.1q1.85 0 2.37.83c.49.8-.1 1.97-.36 2.47l-.02.05-.5 1-.29.57-.37.73-.87 1.75q-.08.12-.14.28l-.05.1a1.2 1.2 0 0 1-.9.46m3.75-.9a1.23 1.23 0 1 1 2.08-1.3 1.23 1.23 0 0 1-2.08 1.3"/></svg>