<svg xmlns="http://www.w3.org/2000/svg" fill="none" viewBox="0 0 106 40"><path fill="#fff" d="M45.72 25.72h-1.83v-7.98h1.72v1.3q.54-.83 1.23-1.2a3.3 3.3 0 0 1 1.64-.39q.94 0 1.55.4.61.38.94 1.18.63-.82 1.34-1.2a3.4 3.4 0 0 1 1.62-.38q.8 0 1.38.3.6.29.92.84.15.26.22.62t.07 1.03v5.48h-1.82v-4.1q0-1.6-.35-2.1-.34-.52-1.21-.52-1.08 0-1.54.69-.45.67-.46 2.4v3.63h-1.84v-4.1q0-1.48-.36-2.05t-1.23-.57q-.54 0-.98.24-.45.25-.71.68-.17.26-.24.68-.06.4-.06 1.49zm20.76 0h-1.83v-1.03q-.48.69-1.14 1.03-.65.33-1.49.33a3.3 3.3 0 0 1-2.67-1.15 4.8 4.8 0 0 1-.97-3.17q0-1.91 1-3.09a3.2 3.2 0 0 1 2.59-1.17q.97 0 1.67.4.7.42 1.01 1.18v-1.3h1.83zm-1.78-4.01q0-1.24-.58-1.93a2 2 0 0 0-1.6-.69q-1.05 0-1.64.72-.59.7-.59 1.97a3 3 0 0 0 .58 1.96q.57.69 1.61.69 1 0 1.6-.75.63-.75.62-1.97m10.04 0q0-1.24-.58-1.93a2 2 0 0 0-1.61-.69q-1.03 0-1.63.72-.6.7-.6 1.97a3 3 0 0 0 .58 1.96q.57.69 1.62.69.98 0 1.6-.75t.62-1.97m1.77 3.52q0 2.34-.93 3.29t-3.15.96q-1.65 0-2.63-.7a2.2 2.2 0 0 1-1-1.84l1.96-.01q.04.51.48.78t1.23.27q1.17 0 1.68-.51.52-.52.52-1.72l.02-1.06q-.48.69-1.15 1.03-.65.33-1.49.33a3.3 3.3 0 0 1-2.66-1.15 4.8 4.8 0 0 1-.97-3.17q0-1.91.99-3.09a3.2 3.2 0 0 1 2.6-1.17q.97 0 1.66.4.7.42 1.02 1.18v-1.3h1.82zm10.16.97-1.84-4.15a14 14 0 0 1-.59-1.59l-.55 1.53-1.9 4.21-4.13-8.46h1.94l1.8 3.85q.1.25.2.67t.2.94q0-.3.1-.63.08-.34.3-.81l1.96-4.31h.15l1.99 4.3a4 4 0 0 1 .37 1.45 7 7 0 0 1 .47-1.6l1.76-3.86h1.92zm12.8-.48h-1.82v-1.03q-.49.69-1.14 1.03-.65.33-1.5.33a3.3 3.3 0 0 1-2.66-1.15 4.8 4.8 0 0 1-.97-3.17q0-1.91 1-3.09a3.2 3.2 0 0 1 2.59-1.17q.97 0 1.66.4.7.42 1.02 1.18v-1.3h1.83zm-1.77-4.01q0-1.24-.58-1.93a2 2 0 0 0-1.6-.69q-1.05 0-1.64.72-.6.7-.59 1.97a3 3 0 0 0 .57 1.96q.57.69 1.62.69.99 0 1.6-.75t.62-1.97m4.14-7.42q0-.45.34-.8.35-.33.81-.33.5 0 .81.33.33.31.33.8t-.33.83a1 1 0 0 1-.8.33q-.48 0-.82-.34t-.34-.82m.25 11.43v-7.98h1.82v7.98zm-76.6 2.9 2.49-5.04-9.45-.92a2.3 2.3 0 0 1-1.46-.82 2.4 2.4 0 0 1-.05-1.6l3.26-8.95c-5 0-10-.03-10.66-.06s-2.3-.02-2.8 1.03c-.39 1.1 0 1.93 1.67 3l.54.33c1.1.65 2.12 1.25 2.74 2.3.68 1.16-.3 2.18-.63 2.42l-4.98 3.12a1.41 1.41 0 0 0 1.5 2.39l4.7-2.95c.57.97 1.23 2.06 1.78 2.95l-1.91 1.2a1.41 1.41 0 1 0 1.49 2.4l1.69-1.06c3.58-2.23 3.78 2.42 3.84 4.12s.95 2.55 1.63 2.61c.88.09 1.6-.41 2.35-1.9.2-.38 1.14-2.3 2.27-4.58"/><path fill="#fff" d="M23.65 11.45q.2-.12.41-.16c2.32 0 4.38 0 5.66-.02 4.45-.05 2.96 2.9 2.48 3.87l-2.42 4.8-.24.5a1.6 1.6 0 0 1-1.03.5s-3.56-.31-6.08-.58l-.42-.05c-.92-.09-1.4-.14-1.62-.49-.26-.4.1-1.41.3-1.96l.07-.18.34-.88c.46-1.2.78-2.03 1.92-4.65q.19-.46.63-.7m10.7 8.03a1.1 1.1 0 1 0-1.16-1.86 1.1 1.1 0 0 0 1.16 1.86m-24.9 12.6a1.41 1.41 0 0 0-1.5-2.39l-.8.5a1.41 1.41 0 0 0 1.5 2.4z"/><path stroke="#A072FD" stroke-linecap="round" d="M14.52 32.45s2.74 4.4 2.88 4.6c.37.53 1.95 2.5 4.07 2.3 2.5-.24 4.08-3.7 4.08-3.7l6.57-13.17"/><path stroke="#FE60B7" stroke-linecap="round" d="M36.24 14.72s1.64-2.57.33-4.7c-1.3-2.15-5.04-2.18-5.04-2.18l-13.88.07"/><path stroke="#BFECFF" stroke-linecap="round" d="M12.38 7.85s-5.09.03-5.55.09c-.9.1-2.9.54-3.72 2.2-1.12 2.24.99 5.42.99 5.42l2.65 4.24"/></svg>