<svg xmlns="http://www.w3.org/2000/svg" viewBox="0 0 37 31"><path d="M3.08 7.74c0-.7.7-1.28 1.54-1.28h12.35c.4 0 .8.13 1.08.37q.44.39.45.91 0 .53-.45.91a1.7 1.7 0 0 1-1.08.38h-12.35c-.85 0-1.54-.58-1.54-1.29m0 7.76c0-.71.7-1.28 1.54-1.28h27.76c.4 0 .8.13 1.09.37s.45.57.45.91-.16.67-.45.9a1.7 1.7 0 0 1-1.09.39h-27.76c-.85 0-1.54-.58-1.54-1.29m1.54 6.47q-.64.01-1.09.38c-.29.24-.45.57-.45.9q0 .54.45.92.46.36 1.09.37h18.51q.3 0 .59-.1t.5-.27.33-.42a1.1 1.1 0 0 0 0-.99 1 1 0 0 0-.33-.41 2 2 0 0 0-.5-.28 2 2 0 0 0-.59-.1z"/></svg>